solid OpenSCAD_Model
  facet normal 0 0 -1
    outer loop
      vertex -9.5 -16.4545 0
      vertex -3.53552 -3.53552 0
      vertex -1.91341 -4.61938 0
    endloop
  endfacet
  facet normal 0 0 -1
    outer loop
      vertex 0 -5 0
      vertex 16.1133 -5 0
      vertex 9.5 -16.4545 0
    endloop
  endfacet
  facet normal 0 0 -1
    outer loop
      vertex -9.5 -16.4545 0
      vertex -19 0 0
      vertex -4.61938 -1.91341 0
    endloop
  endfacet
  facet normal -0 0 -1
    outer loop
      vertex 0 -5 0
      vertex -9.5 -16.4545 0
      vertex -1.91341 -4.61938 0
    endloop
  endfacet
  facet normal 0 -0 -1
    outer loop
      vertex -4.61938 -1.91341 0
      vertex -3.53552 -3.53552 0
      vertex -9.5 -16.4545 0
    endloop
  endfacet
  facet normal 0 0 -1
    outer loop
      vertex -19 0 0
      vertex -4.61938 1.91341 0
      vertex -5 0 0
    endloop
  endfacet
  facet normal 0 0 -1
    outer loop
      vertex -19 0 0
      vertex -9.49998 16.4545 0
      vertex -4.61938 1.91341 0
    endloop
  endfacet
  facet normal 0 0 -1
    outer loop
      vertex -4.61938 1.91341 0
      vertex -9.49998 16.4545 0
      vertex -3.53552 3.53552 0
    endloop
  endfacet
  facet normal 0 0 -1
    outer loop
      vertex -9.49998 16.4545 0
      vertex 0 5 0
      vertex -1.91341 4.61938 0
    endloop
  endfacet
  facet normal 0 0 -1
    outer loop
      vertex -9.49998 16.4545 0
      vertex 9.5 16.4545 0
      vertex 0 5 0
    endloop
  endfacet
  facet normal 0 0 -1
    outer loop
      vertex 0 5 0
      vertex 9.5 16.4545 0
      vertex 16.1133 5 0
    endloop
  endfacet
  facet normal 0 0 -1
    outer loop
      vertex -3.53552 3.53552 0
      vertex -9.49998 16.4545 0
      vertex -1.91341 4.61938 0
    endloop
  endfacet
  facet normal 0 0 -1
    outer loop
      vertex -4.61938 -1.91341 0
      vertex -19 0 0
      vertex -5 0 0
    endloop
  endfacet
  facet normal 0 0 -1
    outer loop
      vertex 9.5 -16.4545 0
      vertex -9.5 -16.4545 0
      vertex 0 -5 0
    endloop
  endfacet
  facet normal 0 0 1
    outer loop
      vertex -1.91341 -4.61938 3.5
      vertex -3.53552 -3.53552 3.5
      vertex -9.5 -16.4545 3.5
    endloop
  endfacet
  facet normal 0 -0 1
    outer loop
      vertex 9.5 -16.4545 3.5
      vertex 16.1133 -5 3.5
      vertex 0 -5 3.5
    endloop
  endfacet
  facet normal 0 0 1
    outer loop
      vertex -4.61938 -1.91341 3.5
      vertex -19 0 3.5
      vertex -9.5 -16.4545 3.5
    endloop
  endfacet
  facet normal 0 0 1
    outer loop
      vertex -1.91341 -4.61938 3.5
      vertex -9.5 -16.4545 3.5
      vertex 0 -5 3.5
    endloop
  endfacet
  facet normal 0 0 1
    outer loop
      vertex -9.5 -16.4545 3.5
      vertex -3.53552 -3.53552 3.5
      vertex -4.61938 -1.91341 3.5
    endloop
  endfacet
  facet normal 0 -0 1
    outer loop
      vertex -5 0 3.5
      vertex -4.61938 1.91341 3.5
      vertex -19 0 3.5
    endloop
  endfacet
  facet normal 0 0 1
    outer loop
      vertex -4.61938 1.91341 3.5
      vertex -9.49998 16.4545 3.5
      vertex -19 0 3.5
    endloop
  endfacet
  facet normal 0 0 1
    outer loop
      vertex -3.53552 3.53552 3.5
      vertex -9.49998 16.4545 3.5
      vertex -4.61938 1.91341 3.5
    endloop
  endfacet
  facet normal 0 -0 1
    outer loop
      vertex -1.91341 4.61938 3.5
      vertex 0 5 3.5
      vertex -9.49998 16.4545 3.5
    endloop
  endfacet
  facet normal 0 -0 1
    outer loop
      vertex 0 5 3.5
      vertex 9.5 16.4545 3.5
      vertex -9.49998 16.4545 3.5
    endloop
  endfacet
  facet normal 0 0 1
    outer loop
      vertex 16.1133 5 3.5
      vertex 9.5 16.4545 3.5
      vertex 0 5 3.5
    endloop
  endfacet
  facet normal 0 0 1
    outer loop
      vertex -1.91341 4.61938 3.5
      vertex -9.49998 16.4545 3.5
      vertex -3.53552 3.53552 3.5
    endloop
  endfacet
  facet normal 0 0 1
    outer loop
      vertex -5 0 3.5
      vertex -19 0 3.5
      vertex -4.61938 -1.91341 3.5
    endloop
  endfacet
  facet normal 0 0 1
    outer loop
      vertex 0 -5 3.5
      vertex -9.5 -16.4545 3.5
      vertex 9.5 -16.4545 3.5
    endloop
  endfacet
  facet normal 0 1 0
    outer loop
      vertex 0 -5 0
      vertex 16.1133 -5 3.5
      vertex 16.1133 -5 0
    endloop
  endfacet
  facet normal 0 1 0
    outer loop
      vertex 0 -5 0
      vertex 0 -5 3.5
      vertex 16.1133 -5 3.5
    endloop
  endfacet
  facet normal 0.195098 0.980784 0
    outer loop
      vertex -1.91341 -4.61938 0
      vertex 0 -5 3.5
      vertex 0 -5 0
    endloop
  endfacet
  facet normal 0.195098 0.980784 -0
    outer loop
      vertex -1.91341 -4.61938 0
      vertex -1.91341 -4.61938 3.5
      vertex 0 -5 3.5
    endloop
  endfacet
  facet normal 0.55557 0.83147 0
    outer loop
      vertex -3.53552 -3.53552 0
      vertex -1.91341 -4.61938 3.5
      vertex -1.91341 -4.61938 0
    endloop
  endfacet
  facet normal 0.55557 0.83147 -0
    outer loop
      vertex -3.53552 -3.53552 0
      vertex -3.53552 -3.53552 3.5
      vertex -1.91341 -4.61938 3.5
    endloop
  endfacet
  facet normal 0.83147 0.55557 0
    outer loop
      vertex -4.61938 -1.91341 0
      vertex -3.53552 -3.53552 3.5
      vertex -3.53552 -3.53552 0
    endloop
  endfacet
  facet normal 0.83147 0.55557 -0
    outer loop
      vertex -4.61938 -1.91341 0
      vertex -4.61938 -1.91341 3.5
      vertex -3.53552 -3.53552 3.5
    endloop
  endfacet
  facet normal 0.980784 0.195098 0
    outer loop
      vertex -5 0 0
      vertex -4.61938 -1.91341 3.5
      vertex -4.61938 -1.91341 0
    endloop
  endfacet
  facet normal 0.980784 0.195098 -0
    outer loop
      vertex -5 0 0
      vertex -5 0 3.5
      vertex -4.61938 -1.91341 3.5
    endloop
  endfacet
  facet normal 0.980784 -0.195098 0
    outer loop
      vertex -4.61938 1.91341 0
      vertex -5 0 3.5
      vertex -5 0 0
    endloop
  endfacet
  facet normal 0.980784 -0.195098 0
    outer loop
      vertex -4.61938 1.91341 0
      vertex -4.61938 1.91341 3.5
      vertex -5 0 3.5
    endloop
  endfacet
  facet normal 0.83147 -0.55557 0
    outer loop
      vertex -3.53552 3.53552 0
      vertex -4.61938 1.91341 3.5
      vertex -4.61938 1.91341 0
    endloop
  endfacet
  facet normal 0.83147 -0.55557 0
    outer loop
      vertex -3.53552 3.53552 0
      vertex -3.53552 3.53552 3.5
      vertex -4.61938 1.91341 3.5
    endloop
  endfacet
  facet normal 0.55557 -0.83147 0
    outer loop
      vertex -1.91341 4.61938 0
      vertex -3.53552 3.53552 3.5
      vertex -3.53552 3.53552 0
    endloop
  endfacet
  facet normal 0.55557 -0.83147 0
    outer loop
      vertex -1.91341 4.61938 0
      vertex -1.91341 4.61938 3.5
      vertex -3.53552 3.53552 3.5
    endloop
  endfacet
  facet normal 0.195098 -0.980784 0
    outer loop
      vertex 0 5 0
      vertex -1.91341 4.61938 3.5
      vertex -1.91341 4.61938 0
    endloop
  endfacet
  facet normal 0.195098 -0.980784 0
    outer loop
      vertex 0 5 0
      vertex 0 5 3.5
      vertex -1.91341 4.61938 3.5
    endloop
  endfacet
  facet normal 0 -1 0
    outer loop
      vertex 16.1133 5 0
      vertex 0 5 3.5
      vertex 0 5 0
    endloop
  endfacet
  facet normal 0 -1 0
    outer loop
      vertex 16.1133 5 0
      vertex 16.1133 5 3.5
      vertex 0 5 3.5
    endloop
  endfacet
  facet normal 0.866025 0.500001 0
    outer loop
      vertex 9.5 16.4545 0
      vertex 16.1133 5 3.5
      vertex 16.1133 5 0
    endloop
  endfacet
  facet normal 0.866025 0.500001 -0
    outer loop
      vertex 9.5 16.4545 0
      vertex 9.5 16.4545 3.5
      vertex 16.1133 5 3.5
    endloop
  endfacet
  facet normal 0 1 0
    outer loop
      vertex -9.49998 16.4545 0
      vertex 9.5 16.4545 3.5
      vertex 9.5 16.4545 0
    endloop
  endfacet
  facet normal 0 1 0
    outer loop
      vertex -9.49998 16.4545 0
      vertex -9.49998 16.4545 3.5
      vertex 9.5 16.4545 3.5
    endloop
  endfacet
  facet normal -0.866025 0.500001 0
    outer loop
      vertex -19 0 0
      vertex -9.49998 16.4545 3.5
      vertex -9.49998 16.4545 0
    endloop
  endfacet
  facet normal -0.866025 0.500001 0
    outer loop
      vertex -19 0 0
      vertex -19 0 3.5
      vertex -9.49998 16.4545 3.5
    endloop
  endfacet
  facet normal -0.866025 -0.5 0
    outer loop
      vertex -9.5 -16.4545 0
      vertex -19 0 3.5
      vertex -19 0 0
    endloop
  endfacet
  facet normal -0.866025 -0.5 0
    outer loop
      vertex -9.5 -16.4545 0
      vertex -9.5 -16.4545 3.5
      vertex -19 0 3.5
    endloop
  endfacet
  facet normal 0 -1 0
    outer loop
      vertex 9.5 -16.4545 0
      vertex -9.5 -16.4545 3.5
      vertex -9.5 -16.4545 0
    endloop
  endfacet
  facet normal 0 -1 0
    outer loop
      vertex 9.5 -16.4545 0
      vertex 9.5 -16.4545 3.5
      vertex -9.5 -16.4545 3.5
    endloop
  endfacet
  facet normal 0.866025 -0.500001 0
    outer loop
      vertex 16.1133 -5 0
      vertex 9.5 -16.4545 3.5
      vertex 9.5 -16.4545 0
    endloop
  endfacet
  facet normal 0.866025 -0.500001 0
    outer loop
      vertex 16.1133 -5 0
      vertex 16.1133 -5 3.5
      vertex 9.5 -16.4545 3.5
    endloop
  endfacet
endsolid OpenSCAD_Model
