solid OpenSCAD_Model
  facet normal 0 1 -0
    outer loop
      vertex 0 -9.95 -7.6
      vertex -1 -9.95 -7.6
      vertex 0 -9.95 -2.6
    endloop
  endfacet
  facet normal 0 0 -1
    outer loop
      vertex -1 -15.45 -7.6
      vertex 0 -9.95 -7.6
      vertex 0 -15.45 -7.6
    endloop
  endfacet
  facet normal -0 0 -1
    outer loop
      vertex 0 -9.95 -7.6
      vertex -1 -15.45 -7.6
      vertex -1 -9.95 -7.6
    endloop
  endfacet
  facet normal -1 0 0
    outer loop
      vertex 0 18 -12.5
      vertex 0 9.95 -7.6
      vertex 0 15.45 -7.6
    endloop
  endfacet
  facet normal -1 0 0
    outer loop
      vertex 0 9.95 -7.6
      vertex 0 -9.95 -7.6
      vertex 0 9.95 -2.6
    endloop
  endfacet
  facet normal -1 0 0
    outer loop
      vertex 0 18 -12.5
      vertex 0 -9.95 -7.6
      vertex 0 9.95 -7.6
    endloop
  endfacet
  facet normal -1 0 0
    outer loop
      vertex 0 -18 -12.5
      vertex 0 -9.95 -7.6
      vertex 0 18 -12.5
    endloop
  endfacet
  facet normal -1 0 0
    outer loop
      vertex 0 -20.5 0
      vertex 0 -15.45 -7.6
      vertex 0 -18 -12.5
    endloop
  endfacet
  facet normal -1 -0 0
    outer loop
      vertex 0 -9.95 -7.6
      vertex 0 -18 -12.5
      vertex 0 -15.45 -7.6
    endloop
  endfacet
  facet normal -1 0 0
    outer loop
      vertex 0 15.45 -7.6
      vertex 0 20.5 0
      vertex 0 18 -12.5
    endloop
  endfacet
  facet normal -1 0 0
    outer loop
      vertex 0 15.45 -2.6
      vertex 0 20.5 0
      vertex 0 15.45 -7.6
    endloop
  endfacet
  facet normal -1 0 0
    outer loop
      vertex 0 9.95 -2.6
      vertex 0 20.5 0
      vertex 0 15.45 -2.6
    endloop
  endfacet
  facet normal -1 0 0
    outer loop
      vertex 0 -9.95 -2.6
      vertex 0 9.95 -2.6
      vertex 0 -9.95 -7.6
    endloop
  endfacet
  facet normal -1 0 0
    outer loop
      vertex 0 -9.95 -2.6
      vertex 0 20.5 0
      vertex 0 9.95 -2.6
    endloop
  endfacet
  facet normal -1 0 0
    outer loop
      vertex 0 -20.5 0
      vertex 0 -9.95 -2.6
      vertex 0 -15.45 -2.6
    endloop
  endfacet
  facet normal -1 0 0
    outer loop
      vertex 0 -9.95 -2.6
      vertex 0 -20.5 0
      vertex 0 20.5 0
    endloop
  endfacet
  facet normal -1 0 0
    outer loop
      vertex 0 -15.45 -7.6
      vertex 0 -20.5 0
      vertex 0 -15.45 -2.6
    endloop
  endfacet
  facet normal -0.980581 0 0.196116
    outer loop
      vertex -1 -15.45 -7.6
      vertex 0 -9.95 -2.6
      vertex -1 -9.95 -7.6
    endloop
  endfacet
  facet normal -0.980581 0 0.196116
    outer loop
      vertex 0 -9.95 -2.6
      vertex -1 -15.45 -7.6
      vertex 0 -15.45 -2.6
    endloop
  endfacet
  facet normal 0 -1 -0
    outer loop
      vertex 0 -15.45 -2.6
      vertex -1 -15.45 -7.6
      vertex 0 -15.45 -7.6
    endloop
  endfacet
  facet normal 0 1 -0
    outer loop
      vertex 0 15.45 -7.6
      vertex -1 15.45 -7.6
      vertex 0 15.45 -2.6
    endloop
  endfacet
  facet normal 0 0 -1
    outer loop
      vertex -1 9.95 -7.6
      vertex 0 15.45 -7.6
      vertex 0 9.95 -7.6
    endloop
  endfacet
  facet normal -0 0 -1
    outer loop
      vertex 0 15.45 -7.6
      vertex -1 9.95 -7.6
      vertex -1 15.45 -7.6
    endloop
  endfacet
  facet normal -0.980581 0 0.196116
    outer loop
      vertex -1 9.95 -7.6
      vertex 0 15.45 -2.6
      vertex -1 15.45 -7.6
    endloop
  endfacet
  facet normal -0.980581 0 0.196116
    outer loop
      vertex 0 15.45 -2.6
      vertex -1 9.95 -7.6
      vertex 0 9.95 -2.6
    endloop
  endfacet
  facet normal 0 -1 -0
    outer loop
      vertex 0 9.95 -2.6
      vertex -1 9.95 -7.6
      vertex 0 9.95 -7.6
    endloop
  endfacet
  facet normal 0 0 1
    outer loop
      vertex 3.8 28 0
      vertex 0 20.5 0
      vertex 3.8 -28 0
    endloop
  endfacet
  facet normal 0 0 1
    outer loop
      vertex 3.8 28 0
      vertex -1.9 20.5 0
      vertex 0 20.5 0
    endloop
  endfacet
  facet normal 0 0 1
    outer loop
      vertex -1.9 20.5 0
      vertex -6.2 28 0
      vertex -1.9 -20.5 0
    endloop
  endfacet
  facet normal -0 0 1
    outer loop
      vertex -6.2 28 0
      vertex -1.9 20.5 0
      vertex 3.8 28 0
    endloop
  endfacet
  facet normal -0 0 1
    outer loop
      vertex 0 -20.5 0
      vertex 3.8 -28 0
      vertex 0 20.5 0
    endloop
  endfacet
  facet normal -0 0 1
    outer loop
      vertex -1.9 -20.5 0
      vertex 3.8 -28 0
      vertex 0 -20.5 0
    endloop
  endfacet
  facet normal 0 0 1
    outer loop
      vertex -1.9 -20.5 0
      vertex -6.2 -28 0
      vertex 3.8 -28 0
    endloop
  endfacet
  facet normal 0 0 1
    outer loop
      vertex -6.2 -28 0
      vertex -1.9 -20.5 0
      vertex -6.2 28 0
    endloop
  endfacet
  facet normal -0 0 1
    outer loop
      vertex -1.9 18 -12.5
      vertex 0 -18 -12.5
      vertex 0 18 -12.5
    endloop
  endfacet
  facet normal 0 0 1
    outer loop
      vertex 0 -18 -12.5
      vertex -1.9 18 -12.5
      vertex -1.9 -18 -12.5
    endloop
  endfacet
  facet normal 1 0 0
    outer loop
      vertex -1.9 20.5 0
      vertex -1.9 -18 -12.5
      vertex -1.9 18 -12.5
    endloop
  endfacet
  facet normal 1 0 -0
    outer loop
      vertex -1.9 -18 -12.5
      vertex -1.9 20.5 0
      vertex -1.9 -20.5 0
    endloop
  endfacet
  facet normal 0 -0.980581 0.196116
    outer loop
      vertex -1.9 18 -12.5
      vertex 0 20.5 0
      vertex -1.9 20.5 0
    endloop
  endfacet
  facet normal 0 -0.980581 0.196116
    outer loop
      vertex 0 20.5 0
      vertex -1.9 18 -12.5
      vertex 0 18 -12.5
    endloop
  endfacet
  facet normal 0 0.980581 0.196116
    outer loop
      vertex 0 -18 -12.5
      vertex -1.9 -20.5 0
      vertex 0 -20.5 0
    endloop
  endfacet
  facet normal 0 0.980581 0.196116
    outer loop
      vertex -1.9 -20.5 0
      vertex 0 -18 -12.5
      vertex -1.9 -18 -12.5
    endloop
  endfacet
  facet normal -1 0 0
    outer loop
      vertex -6.2 -28 -30
      vertex -6.2 28 0
      vertex -6.2 28 -30
    endloop
  endfacet
  facet normal -1 -0 0
    outer loop
      vertex -6.2 28 0
      vertex -6.2 -28 -30
      vertex -6.2 -28 0
    endloop
  endfacet
  facet normal 1 -0 0
    outer loop
      vertex 3.8 -28 0
      vertex 3.8 28 -30
      vertex 3.8 28 0
    endloop
  endfacet
  facet normal 1 0 0
    outer loop
      vertex 3.8 28 -30
      vertex 3.8 -28 0
      vertex 3.8 -28 -30
    endloop
  endfacet
  facet normal 0 1 -0
    outer loop
      vertex 3.8 28 -30
      vertex -6.2 28 0
      vertex 3.8 28 0
    endloop
  endfacet
  facet normal 0 1 0
    outer loop
      vertex -6.2 28 0
      vertex 3.8 28 -30
      vertex -6.2 28 -30
    endloop
  endfacet
  facet normal 0 0 -1
    outer loop
      vertex -6.2 -28 -30
      vertex 3.8 28 -30
      vertex 3.8 -28 -30
    endloop
  endfacet
  facet normal -0 0 -1
    outer loop
      vertex 3.8 28 -30
      vertex -6.2 -28 -30
      vertex -6.2 28 -30
    endloop
  endfacet
  facet normal 0 -1 0
    outer loop
      vertex -6.2 -28 -30
      vertex 3.8 -28 0
      vertex -6.2 -28 0
    endloop
  endfacet
  facet normal 0 -1 -0
    outer loop
      vertex 3.8 -28 0
      vertex -6.2 -28 -30
      vertex 3.8 -28 -30
    endloop
  endfacet
endsolid OpenSCAD_Model
