solid OpenSCAD_Model
  facet normal 0 0 -1
    outer loop
      vertex 12 -7 0
      vertex -12 -7 0
      vertex -12 7 0
    endloop
  endfacet
  facet normal 0 0 -1
    outer loop
      vertex 12 -7 0
      vertex -12 7 0
      vertex 12 7 0
    endloop
  endfacet
  facet normal 0 0 1
    outer loop
      vertex -12 7 18
      vertex -12 -7 18
      vertex 12 -7 18
    endloop
  endfacet
  facet normal 0 0 1
    outer loop
      vertex 12 7 18
      vertex -12 7 18
      vertex 12 -7 18
    endloop
  endfacet
  facet normal 0 -1 0
    outer loop
      vertex 12 -7 0
      vertex -12 -7 18
      vertex -12 -7 0
    endloop
  endfacet
  facet normal 0 -1 0
    outer loop
      vertex 12 -7 0
      vertex 12 -7 18
      vertex -12 -7 18
    endloop
  endfacet
  facet normal 1 0 0
    outer loop
      vertex 12 7 0
      vertex 12 -7 18
      vertex 12 -7 0
    endloop
  endfacet
  facet normal 1 0 -0
    outer loop
      vertex 12 7 0
      vertex 12 7 18
      vertex 12 -7 18
    endloop
  endfacet
  facet normal 0 1 0
    outer loop
      vertex -12 7 0
      vertex 12 7 18
      vertex 12 7 0
    endloop
  endfacet
  facet normal 0 1 0
    outer loop
      vertex -12 7 0
      vertex -12 7 18
      vertex 12 7 18
    endloop
  endfacet
  facet normal -1 0 0
    outer loop
      vertex -12 -7 0
      vertex -12 7 18
      vertex -12 7 0
    endloop
  endfacet
  facet normal -1 0 0
    outer loop
      vertex -12 -7 0
      vertex -12 -7 18
      vertex -12 7 18
    endloop
  endfacet
endsolid OpenSCAD_Model
